<svg width="42" height="36" viewBox="0 0 42 36" fill="none" xmlns="http://www.w3.org/2000/svg">
<path d="M26.7692 36C27.5339 36 28.1538 35.3801 28.1538 34.6154C28.1538 33.8507 27.5339 33.2308 26.7692 33.2308H25.3846V29.5385H38.3077C40.0736 29.5385 41.5385 28.0736 41.5385 26.3077V3.23077C41.5385 1.46488 40.0736 0 38.3077 0H3.23077C1.46488 0 0 1.46488 0 3.23077V26.3077C0 28.0736 1.46488 29.5385 3.23077 29.5385H16.1538V33.2308H14.7692C14.0045 33.2308 13.3846 33.8507 13.3846 34.6154C13.3846 35.3801 14.0045 36 14.7692 36H26.7692ZM3.23077 2.76923H38.3077C38.5873 2.76923 38.7692 2.95116 38.7692 3.23077V26.3077C38.7692 26.5873 38.5873 26.7692 38.3077 26.7692H25.3846H16.1538H3.23077C2.95112 26.7692 2.76923 26.5873 2.76923 26.3077V3.23077C2.76923 2.95116 2.95112 2.76923 3.23077 2.76923ZM11.3942 6.46154C10.7186 6.53235 10.1502 7.16684 10.1538 7.84615V20.3077C10.1539 21.0327 10.8135 21.6922 11.5385 21.6923H18C18.0311 21.6923 18.5112 21.8305 18.8654 22.125C19.2195 22.4195 19.4053 22.8481 19.399 22.8029C19.4942 23.454 20.1112 23.9873 20.7692 23.9873C21.4273 23.9873 22.0442 23.454 22.1394 22.8029C22.1332 22.8481 22.3189 22.4195 22.6731 22.125C23.0272 21.8305 23.5074 21.6923 23.5385 21.6923H30C30.725 21.6922 31.3845 21.0327 31.3846 20.3077V7.84615C31.3845 7.12119 30.725 6.46161 30 6.46154H23.5385C22.4346 6.5707 21.4872 6.95487 20.7692 7.54327C19.9433 6.90785 18.8533 6.47382 18 6.46154C15.8041 6.46153 13.5787 6.46154 11.3942 6.46154ZM12.9231 9.23077H18C18.1806 9.23077 18.6613 9.38209 18.9808 9.63462C19.3003 9.88714 19.3846 10.159 19.3846 10.1538V19.2115C18.9682 19.0344 18.5141 18.9231 18 18.9231H12.9231V9.23077ZM23.5385 9.23077H28.6154V18.9231H23.5385C23.0243 18.9231 22.5703 19.0344 22.1538 19.2115V10.1538C22.1538 10.159 22.2382 9.88714 22.5577 9.63462C22.8772 9.38209 23.3579 9.23077 23.5385 9.23077ZM18.9231 29.5385H22.6154V33.2308H18.9231V29.5385Z" fill="#232B3D"/>
</svg>
