<svg width="574" height="747" viewBox="0 0 574 747" fill="none" xmlns="http://www.w3.org/2000/svg">
<mask id="mask0" mask-type="alpha" maskUnits="userSpaceOnUse" x="0" y="0" width="787" height="747">
<rect width="787" height="747" fill="#C4C4C4"/>
</mask>
<g mask="url(#mask0)">
<path d="M270.471 107.292L136.941 566.342C123.115 613.872 167.194 657.948 214.724 644.12L667.611 512.35C713.097 499.116 728.076 442.181 694.992 408.275L375.634 80.9943C342.074 46.6015 283.893 61.1504 270.471 107.292Z" stroke="#FFF6ED" stroke-width="100"/>
<path opacity="0.56" d="M106.963 197.984L253.714 652.98C268.909 700.091 330.118 711.882 361.726 673.786L662.901 310.794C693.15 274.336 673.638 218.79 627.234 209.259L179.308 117.256C132.238 107.587 92.2124 152.25 106.963 197.984Z" stroke="#AFACFB" stroke-width="100"/>
</g>
</svg>
