<svg width="37" height="29" viewBox="0 0 37 29" fill="none" xmlns="http://www.w3.org/2000/svg">
<path d="M21.7131 22.2013C20.7371 22.7606 19.8873 21.2746 20.8632 20.7154C24.6795 18.5331 28.5944 18.5221 32.6081 20.7099C33.595 21.2472 32.778 22.7496 31.7911 22.2068C28.2983 20.3041 25.0304 20.3041 21.7131 22.2013Z" fill="#FEBAD2"/>
<path d="M21.7131 16.0768C20.7371 16.6415 19.8873 15.1501 20.8632 14.5909C24.6795 12.4086 28.5944 12.3976 32.6081 14.5854C33.595 15.1227 32.778 16.6251 31.7911 16.0877C28.2983 14.1796 25.0304 14.1796 21.7131 16.0768Z" fill="#FEBAD2"/>
<path d="M21.7131 9.95755C20.7371 10.5168 19.8873 9.03091 20.8632 8.47163C24.6795 6.28387 28.5944 6.2729 32.6081 8.46066C33.595 9.00349 32.778 10.5004 31.7911 9.96303C28.2983 8.0604 25.0304 8.0604 21.7131 9.95755Z" fill="#FEBAD2"/>
<path d="M4.33715 22.2013C3.35567 22.7606 2.50579 21.2746 3.48727 20.7154C7.30351 18.5331 11.213 18.5221 15.2266 20.7099C16.2136 21.2472 15.3966 22.7496 14.4096 22.2068C10.9169 20.3041 7.65443 20.3041 4.33715 22.2013Z" fill="#FEBAD2"/>
<path d="M4.33715 16.0768C3.35567 16.6415 2.50579 15.1501 3.48727 14.5909C7.30351 12.4086 11.213 12.3976 15.2266 14.5854C16.2136 15.1227 15.3966 16.6251 14.4096 16.0877C10.9169 14.1796 7.65443 14.1796 4.33715 16.0768Z" fill="#FEBAD2"/>
<path d="M4.33715 9.95755C3.35567 10.5168 2.50579 9.03091 3.48727 8.47163C7.30351 6.28387 11.213 6.2729 15.2266 8.46066C16.2136 9.00349 15.3966 10.5004 14.4096 9.96303C10.9169 8.0604 7.65443 8.0604 4.33715 9.95755Z" fill="#FEBAD2"/>
<path d="M18.8564 26.1492C24.0215 23.7915 29.2304 23.5338 34.2859 26.0724V4.80896C29.0605 1.46426 24.016 1.79873 18.8564 4.83089V26.1492ZM17.1457 4.77057C11.9696 0.904983 6.73874 0.504717 1.71073 4.74316V26.1547C6.85936 23.8244 12.0464 23.5447 17.1457 26.0395V4.77057ZM17.7269 28.2876C17.6337 28.2547 17.5459 28.2054 17.4692 28.1451C14.8702 26.6537 12.2438 25.9628 9.57899 25.9957C4.63322 26.0505 1.59558 28.3808 0.855365 28.3808C0.383817 28.3808 0 27.9915 0 27.52V4.34837C0 4.1126 0.0986959 3.87683 0.290605 3.70685C5.96014 -1.28278 12.1341 -1.05797 18.0559 3.31755C20.781 1.72745 23.5554 0.795322 26.4012 0.718558C29.4059 0.641795 32.46 1.52457 35.5634 3.59719C35.8266 3.74523 36.0021 4.02487 36.0021 4.34837V27.52C36.0021 28.178 35.2783 28.5947 34.7081 28.2547C29.3456 25.0416 23.9776 25.409 18.4397 28.2547C18.2258 28.3644 17.9627 28.3808 17.7269 28.2876Z" fill="black"/>
</svg>
