<svg width="29" height="30" viewBox="0 0 29 30" fill="none" xmlns="http://www.w3.org/2000/svg">
<path d="M14.2895 29.0767C22.1814 29.0767 28.5791 22.6856 28.5791 14.8018C28.5791 6.91795 22.1814 0.526855 14.2895 0.526855C6.39764 0.526855 0 6.91795 0 14.8018C0 22.6856 6.39764 29.0767 14.2895 29.0767Z" fill="#55ACEE"/>
<path d="M23.0426 10.7856C22.4302 11.0569 21.7715 11.2403 21.0807 11.3223C21.786 10.9001 22.3273 10.2322 22.5828 9.43492C21.9228 9.82603 21.1915 10.1098 20.4138 10.2627C19.7907 9.59981 18.903 9.18555 17.9201 9.18555C16.0341 9.18555 14.5045 10.7136 14.5045 12.5977C14.5045 12.8651 14.5348 13.1254 14.5934 13.3753C11.7547 13.233 9.23778 11.8747 7.55303 9.80975C7.25908 10.3136 7.09045 10.9001 7.09045 11.5253C7.09045 12.7089 7.69389 13.7537 8.60988 14.3654C8.05025 14.3479 7.52323 14.1944 7.06294 13.9382C7.06268 13.9527 7.06268 13.9672 7.06268 13.9814C7.06268 15.6347 8.24053 17.0136 9.80275 17.3269C9.51644 17.4052 9.21409 17.4467 8.90307 17.4467C8.68248 17.4467 8.46876 17.4256 8.2604 17.3859C8.69496 18.7412 9.9561 19.7277 11.4511 19.7555C10.2819 20.6708 8.80933 21.2161 7.20864 21.2161C6.93354 21.2161 6.66098 21.2 6.39429 21.1682C7.90506 22.1367 9.70086 22.7014 11.6296 22.7014C17.9122 22.7014 21.3479 17.5022 21.3479 12.9928C21.3479 12.845 21.3446 12.6977 21.3379 12.5516C22.0058 12.0707 22.5848 11.4699 23.0426 10.7856Z" fill="#F1F2F2"/>
</svg>
